Mailpile-Bold.ufo
<glyph name="quotedbl" format="1">
  <advance width="751"/>
  <unicode hex="0022"/>
  <outline>
    <contour>
      <point x="468" y="1478" type="line"/>
      <point x="284" y="1004" type="line"/>
      <point x="508" y="1004" type="line"/>
      <point x="692" y="1478" type="line"/>
    </contour>
    <contour>
      <point x="202" y="1478" type="line"/>
      <point x="19" y="1003" type="line"/>
      <point x="242" y="1003" type="line"/>
      <point x="427" y="1478" type="line"/>
    </contour>
  </outline>
</glyph>
<glyph name="asterisk" format="1">
  <advance width="865"/>
  <unicode hex="002A"/>
  <outline>
    <contour>
      <point x="329" y="1478" type="line"/>
      <point x="329" y="1224" type="line"/>
      <point x="101" y="1303" type="line"/>
      <point x="39" y="1107" type="line"/>
      <point x="280" y="1030" type="line"/>
      <point x="135" y="832" type="line"/>
      <point x="297" y="705" type="line"/>
      <point x="444" y="916" type="line"/>
      <point x="580" y="717" type="line"/>
      <point x="740" y="832" type="line"/>
      <point x="597" y="1034" type="line"/>
      <point x="830" y="1107" type="line"/>
      <point x="772" y="1307" type="line"/>
      <point x="532" y="1223" type="line"/>
      <point x="532" y="1478" type="line"/>
    </contour>
  </outline>
</glyph>
<glyph name="one" format="1">
  <advance width="914"/>
  <unicode hex="0031"/>
  <outline>
    <contour>
      <point x="43" y="1391" type="line"/>
      <point x="154" y="1175" type="line"/>
      <point x="351" y="1245" type="line"/>
      <point x="351" y="230" type="line"/>
      <point x="68" y="230" type="line"/>
      <point x="68" y="-1" type="line"/>
      <point x="868" y="-1" type="line"/>
      <point x="868" y="230" type="line"/>
      <point x="595" y="230" type="line"/>
      <point x="595" y="1366" type="line" smooth="yes"/>
      <point x="595" y="1501"/>
      <point x="513" y="1559"/>
      <point x="385" y="1513" type="curve" smooth="yes"/>
    </contour>
  </outline>
</glyph>
<glyph name="four" format="1">
  <advance width="1161"/>
  <unicode hex="0034"/>
  <outline>
    <contour>
      <point x="687" y="1494" type="line"/>
      <point x="45" y="487" type="line"/>
      <point x="45" y="302" type="line"/>
      <point x="727" y="302" type="line"/>
      <point x="727" y="-1" type="line"/>
      <point x="964" y="-1" type="line"/>
      <point x="964" y="302" type="line"/>
      <point x="1132" y="302" type="line"/>
      <point x="1132" y="533" type="line"/>
      <point x="964" y="533" type="line"/>
      <point x="964" y="1494" type="line"/>
    </contour>
    <contour>
      <point x="727" y="533" type="line"/>
      <point x="222" y="533" type="line"/>
      <point x="274" y="437" type="line"/>
      <point x="727" y="1118" type="line"/>
    </contour>
  </outline>
</glyph>
<glyph name="five" format="1">
  <advance width="1149"/>
  <unicode hex="0035"/>
  <outline>
    <contour>
      <point x="243" y="1494" type="line"/>
      <point x="138" y="765" type="line"/>
      <point x="270" y="655" type="line"/>
      <point x="415" y="739"/>
      <point x="496" y="765"/>
      <point x="588" y="765" type="curve" smooth="yes"/>
      <point x="735" y="765"/>
      <point x="858" y="675"/>
      <point x="858" y="486" type="curve" smooth="yes"/>
      <point x="858" y="273"/>
      <point x="695" y="207"/>
      <point x="578" y="207" type="curve" smooth="yes"/>
      <point x="437" y="207"/>
      <point x="326" y="296"/>
      <point x="291" y="443" type="curve" smooth="yes"/>
      <point x="74" y="362" type="line" smooth="yes"/>
      <point x="143" y="117"/>
      <point x="328" y="-20"/>
      <point x="578" y="-20" type="curve" smooth="yes"/>
      <point x="805" y="-20"/>
      <point x="1097" y="94"/>
      <point x="1097" y="487" type="curve" smooth="yes"/>
      <point x="1097" y="823"/>
      <point x="873" y="993"/>
      <point x="606" y="993" type="curve" smooth="yes"/>
      <point x="545" y="993"/>
      <point x="479" y="984"/>
      <point x="407" y="961" type="curve"/>
      <point x="453" y="1263" type="line"/>
      <point x="787" y="1263" type="line"/>
      <point x="785" y="1143" type="line"/>
      <point x="1023" y="1143" type="line"/>
      <point x="1023" y="1494" type="line"/>
    </contour>
  </outline>
</glyph>
<glyph name="six" format="1">
  <advance width="1197"/>
  <unicode hex="0036"/>
  <outline>
    <contour>
      <point x="257" y="1527"/>
      <point x="81" y="1144"/>
      <point x="81" y="727" type="curve"/>
      <point x="81" y="290"/>
      <point x="238" y="-20"/>
      <point x="608" y="-20" type="curve" smooth="yes"/>
      <point x="931" y="-20"/>
      <point x="1137" y="196"/>
      <point x="1137" y="498" type="curve" smooth="yes"/>
      <point x="1137" y="805"/>
      <point x="930" y="984"/>
      <point x="646" y="984" type="curve" smooth="yes"/>
      <point x="533" y="984"/>
      <point x="426" y="956"/>
      <point x="332" y="902" type="curve"/>
      <point x="354" y="1123"/>
      <point x="444" y="1295"/>
      <point x="651" y="1295" type="curve" smooth="yes"/>
      <point x="795" y="1295"/>
      <point x="876" y="1226"/>
      <point x="891" y="1079" type="curve"/>
      <point x="1118" y="1119" type="line" smooth="yes"/>
      <point x="1089" y="1378"/>
      <point x="919" y="1527"/>
      <point x="633" y="1527" type="curve" smooth="yes"/>
    </contour>
    <contour>
      <point x="788" y="755"/>
      <point x="901" y="670"/>
      <point x="901" y="499" type="curve" smooth="yes"/>
      <point x="901" y="327"/>
      <point x="790" y="201"/>
      <point x="612" y="201" type="curve" smooth="yes"/>
      <point x="408" y="201"/>
      <point x="330" y="399"/>
      <point x="323" y="628" type="curve"/>
      <point x="406" y="708"/>
      <point x="518" y="755"/>
      <point x="636" y="755" type="curve" smooth="yes"/>
    </contour>
  </outline>
</glyph>
<glyph name="colon" format="1">
  <advance width="500"/>
  <unicode hex="003A"/>
  <outline>
    <contour>
      <point x="166" y="1138"/>
      <point x="91" y="1064"/>
      <point x="91" y="976" type="curve" smooth="yes"/>
      <point x="91" y="890"/>
      <point x="164" y="817"/>
      <point x="250" y="817" type="curve" smooth="yes"/>
      <point x="338" y="817"/>
      <point x="409" y="892"/>
      <point x="412" y="976" type="curve" smooth="yes"/>
      <point x="416" y="1084"/>
      <point x="333" y="1138"/>
      <point x="250" y="1138" type="curve" smooth="yes"/>
    </contour>
    <contour>
      <point x="168" y="302"/>
      <point x="93" y="228"/>
      <point x="93" y="140" type="curve" smooth="yes"/>
      <point x="93" y="54"/>
      <point x="165" y="-19"/>
      <point x="251" y="-19" type="curve" smooth="yes"/>
      <point x="339" y="-19"/>
      <point x="414" y="56"/>
      <point x="414" y="140" type="curve" smooth="yes"/>
      <point x="414" y="248"/>
      <point x="335" y="302"/>
      <point x="251" y="302" type="curve" smooth="yes"/>
    </contour>
  </outline>
</glyph>
<glyph name="less" format="1">
  <advance width="1107"/>
  <unicode hex="003C"/>
  <outline>
    <contour>
      <point x="133" y="845" type="line"/>
      <point x="133" y="628" type="line"/>
      <point x="974" y="267" type="line"/>
      <point x="974" y="507" type="line"/>
      <point x="419" y="736" type="line"/>
      <point x="974" y="967" type="line"/>
      <point x="974" y="1207" type="line"/>
    </contour>
  </outline>
</glyph>
<glyph name="greater" format="1">
  <advance width="1107"/>
  <unicode hex="003E"/>
  <outline>
    <contour>
      <point x="133" y="967" type="line"/>
      <point x="689" y="736" type="line"/>
      <point x="133" y="507" type="line"/>
      <point x="133" y="267" type="line"/>
      <point x="974" y="628" type="line"/>
      <point x="974" y="845" type="line"/>
      <point x="133" y="1207" type="line"/>
    </contour>
  </outline>
</glyph>
<glyph name="C" format="1">
  <advance width="1525"/>
  <unicode hex="0043"/>
  <outline>
    <contour>
      <point x="350" y="1531"/>
      <point x="30" y="1224"/>
      <point x="30" y="765" type="curve" smooth="yes"/>
      <point x="30" y="299"/>
      <point x="337" y="-21"/>
      <point x="805" y="-21" type="curve" smooth="yes"/>
      <point x="1068" y="-21"/>
      <point x="1268" y="77"/>
      <point x="1465" y="346" type="curve"/>
      <point x="1268" y="491" type="line"/>
      <point x="1126" y="286"/>
      <point x="973" y="222"/>
      <point x="811" y="222" type="curve" smooth="yes"/>
      <point x="483" y="222"/>
      <point x="276" y="450"/>
      <point x="276" y="786" type="curve" smooth="yes"/>
      <point x="276" y="1073"/>
      <point x="500" y="1287"/>
      <point x="822" y="1287" type="curve" smooth="yes"/>
      <point x="915" y="1287"/>
      <point x="1028" y="1266"/>
      <point x="1105" y="1222" type="curve" smooth="yes"/>
      <point x="1148" y="1197"/>
      <point x="1183" y="1166"/>
      <point x="1183" y="1109" type="curve" smooth="yes"/>
      <point x="1183" y="1022" type="line"/>
      <point x="1423" y="1022" type="line"/>
      <point x="1423" y="1121" type="line" smooth="yes"/>
      <point x="1424" y="1278"/>
      <point x="1357" y="1373"/>
      <point x="1216" y="1444" type="curve" smooth="yes"/>
      <point x="1135" y="1485"/>
      <point x="1002" y="1531"/>
      <point x="821" y="1531" type="curve" smooth="yes"/>
    </contour>
  </outline>
</glyph>
<glyph name="D" format="1">
  <advance width="1369"/>
  <unicode hex="0044"/>
  <outline>
    <contour>
      <point x="10" y="1496" type="line"/>
      <point x="10" y="1263" type="line"/>
      <point x="136" y="1263" type="line"/>
      <point x="136" y="-1" type="line"/>
      <point x="564" y="-1" type="line" smooth="yes"/>
      <point x="1033" y="-1"/>
      <point x="1310" y="315"/>
      <point x="1310" y="748" type="curve" smooth="yes"/>
      <point x="1310" y="1177"/>
      <point x="1031" y="1496"/>
      <point x="564" y="1496" type="curve" smooth="yes"/>
    </contour>
    <contour>
      <point x="875" y="1264"/>
      <point x="1059" y="1035"/>
      <point x="1059" y="749" type="curve" smooth="yes"/>
      <point x="1059" y="465"/>
      <point x="879" y="231"/>
      <point x="571" y="231" type="curve" smooth="yes"/>
      <point x="383" y="231" type="line"/>
      <point x="383" y="1264" type="line"/>
      <point x="571" y="1264" type="line" smooth="yes"/>
    </contour>
  </outline>
</glyph>
<glyph name="G" format="1">
  <advance width="1475"/>
  <unicode hex="0047"/>
  <outline>
    <contour>
      <point x="362" y="1527"/>
      <point x="30" y="1184"/>
      <point x="30" y="755" type="curve" smooth="yes"/>
      <point x="30" y="319"/>
      <point x="367" y="-21"/>
      <point x="791" y="-21" type="curve" smooth="yes"/>
      <point x="1018" y="-21"/>
      <point x="1215" y="85"/>
      <point x="1329" y="203" type="curve" smooth="yes"/>
      <point x="1387" y="263"/>
      <point x="1413" y="321"/>
      <point x="1413" y="374" type="curve" smooth="yes"/>
      <point x="1413" y="642" type="line" smooth="yes"/>
      <point x="1413" y="763"/>
      <point x="1360" y="818"/>
      <point x="1236" y="818" type="curve" smooth="yes"/>
      <point x="787" y="818" type="line"/>
      <point x="787" y="584" type="line"/>
      <point x="1176" y="584" type="line" smooth="yes"/>
      <point x="1172" y="584"/>
      <point x="1171" y="586"/>
      <point x="1171" y="590" type="curve" smooth="yes"/>
      <point x="1171" y="389" type="line" smooth="yes"/>
      <point x="1171" y="389"/>
      <point x="1171" y="390"/>
      <point x="1171" y="389" type="curve" smooth="yes"/>
      <point x="1138" y="328"/>
      <point x="963" y="216"/>
      <point x="793" y="216" type="curve" smooth="yes"/>
      <point x="503" y="216"/>
      <point x="280" y="457"/>
      <point x="280" y="756" type="curve" smooth="yes"/>
      <point x="280" y="1051"/>
      <point x="492" y="1290"/>
      <point x="783" y="1290" type="curve" smooth="yes"/>
      <point x="922" y="1290"/>
      <point x="1062" y="1226"/>
      <point x="1144" y="1158" type="curve" smooth="yes"/>
      <point x="1166" y="1140"/>
      <point x="1191" y="1120"/>
      <point x="1216" y="1099" type="curve"/>
      <point x="1371" y="1295" type="line"/>
      <point x="1341" y="1317"/>
      <point x="1314" y="1338"/>
      <point x="1289" y="1357" type="curve"/>
      <point x="1149" y="1459"/>
      <point x="1014" y="1527"/>
      <point x="784" y="1527" type="curve" smooth="yes"/>
    </contour>
  </outline>
</glyph>
<glyph name="J" format="1">
  <advance width="1082"/>
  <unicode hex="004A"/>
  <outline>
    <contour>
      <point x="383" y="1494" type="line"/>
      <point x="383" y="1263" type="line"/>
      <point x="740" y="1263" type="line"/>
      <point x="740" y="474" type="line" smooth="yes"/>
      <point x="740" y="308"/>
      <point x="665" y="230"/>
      <point x="517" y="230" type="curve" smooth="yes"/>
      <point x="375" y="230"/>
      <point x="263" y="320"/>
      <point x="263" y="473" type="curve" smooth="yes"/>
      <point x="263" y="580" type="line"/>
      <point x="16" y="580" type="line"/>
      <point x="16" y="467" type="line"/>
      <point x="16" y="165"/>
      <point x="224" y="-3"/>
      <point x="520" y="-3" type="curve" smooth="yes"/>
      <point x="817" y="-3"/>
      <point x="987" y="163"/>
      <point x="987" y="467" type="curve" smooth="yes"/>
      <point x="987" y="1380" type="line" smooth="yes"/>
      <point x="987" y="1419"/>
      <point x="973" y="1447"/>
      <point x="953" y="1465" type="curve" smooth="yes"/>
      <point x="942" y="1475"/>
      <point x="926" y="1484"/>
      <point x="905" y="1489" type="curve"/>
      <point x="902" y="1494" type="line"/>
    </contour>
  </outline>
</glyph>
<glyph name="R" format="1">
  <advance width="1285"/>
  <unicode hex="0052"/>
  <outline>
    <contour>
      <point x="10" y="1496" type="line"/>
      <point x="10" y="1265" type="line"/>
      <point x="136" y="1265" type="line"/>
      <point x="136" y="1" type="line"/>
      <point x="383" y="1" type="line"/>
      <point x="383" y="583" type="line"/>
      <point x="512" y="583" type="line" smooth="yes"/>
      <point x="617" y="582"/>
      <point x="642" y="572"/>
      <point x="658" y="561" type="curve" smooth="yes"/>
      <point x="684" y="543"/>
      <point x="703" y="509"/>
      <point x="723" y="465" type="curve" smooth="yes"/>
      <point x="889" y="76" type="line" smooth="yes"/>
      <point x="900" y="50"/>
      <point x="917" y="32"/>
      <point x="936" y="20" type="curve" smooth="yes"/>
      <point x="955" y="8"/>
      <point x="979" y="-1"/>
      <point x="1008" y="-1" type="curve" smooth="yes"/>
      <point x="1256" y="-1" type="line"/>
      <point x="1256" y="230" type="line"/>
      <point x="1089" y="230" type="line"/>
      <point x="965" y="528" type="line" smooth="yes"/>
      <point x="946" y="576"/>
      <point x="915" y="627"/>
      <point x="877" y="673" type="curve"/>
      <point x="1009" y="742"/>
      <point x="1093" y="860"/>
      <point x="1093" y="1041" type="curve" smooth="yes"/>
      <point x="1093" y="1332"/>
      <point x="875" y="1496"/>
      <point x="560" y="1496" type="curve" smooth="yes"/>
    </contour>
    <contour>
      <point x="716" y="1265"/>
      <point x="843" y="1208"/>
      <point x="843" y="1042" type="curve" smooth="yes"/>
      <point x="843" y="880"/>
      <point x="725" y="815"/>
      <point x="560" y="815" type="curve" smooth="yes"/>
      <point x="384" y="815" type="line"/>
      <point x="384" y="1265" type="line"/>
      <point x="560" y="1265" type="line" smooth="yes"/>
    </contour>
  </outline>
</glyph>
<glyph name="U" format="1">
  <advance width="1427"/>
  <unicode hex="0055"/>
  <outline>
    <contour>
      <point x="1084" y="1494" type="line" smooth="yes"/>
      <point x="1004" y="1494"/>
      <point x="967" y="1457"/>
      <point x="967" y="1381" type="curve" smooth="yes"/>
      <point x="967" y="574" type="line" smooth="yes"/>
      <point x="967" y="356"/>
      <point x="887" y="227"/>
      <point x="676" y="227" type="curve" smooth="yes"/>
      <point x="466" y="227"/>
      <point x="390" y="357"/>
      <point x="390" y="574" type="curve" smooth="yes"/>
      <point x="390" y="1381" type="line" smooth="yes"/>
      <point x="390" y="1473"/>
      <point x="372" y="1494"/>
      <point x="288" y="1494" type="curve" smooth="yes"/>
      <point x="17" y="1494" type="line"/>
      <point x="17" y="1263" type="line"/>
      <point x="143" y="1263" type="line"/>
      <point x="143" y="567" type="line" smooth="yes"/>
      <point x="143" y="195"/>
      <point x="317" y="-20"/>
      <point x="674" y="-20" type="curve" smooth="yes"/>
      <point x="1033" y="-20"/>
      <point x="1212" y="190"/>
      <point x="1212" y="567" type="curve" smooth="yes"/>
      <point x="1213" y="1263" type="line"/>
      <point x="1339" y="1263" type="line"/>
      <point x="1339" y="1494" type="line"/>
    </contour>
    <contour>
      <point x="684" y="62" type="move" name="ogonek"/>
    </contour>
  </outline>
</glyph>
<glyph name="Z" format="1">
  <advance width="1100"/>
  <unicode hex="005A"/>
  <outline>
    <contour>
      <point x="173" y="1494" type="line" smooth="yes"/>
      <point x="95" y="1494"/>
      <point x="58" y="1458"/>
      <point x="58" y="1381" type="curve" smooth="yes"/>
      <point x="58" y="1143" type="line"/>
      <point x="295" y="1143" type="line"/>
      <point x="295" y="1264" type="line"/>
      <point x="730" y="1264" type="line"/>
      <point x="48" y="173" type="line"/>
      <point x="48" y="-0" type="line"/>
      <point x="944" y="-0" type="line" smooth="yes"/>
      <point x="1021" y="-0"/>
      <point x="1057" y="37"/>
      <point x="1057" y="115" type="curve" smooth="yes"/>
      <point x="1057" y="354" type="line"/>
      <point x="822" y="350" type="line"/>
      <point x="822" y="230" type="line"/>
      <point x="366" y="230" type="line"/>
      <point x="1038" y="1316" type="line"/>
      <point x="1038" y="1494" type="line"/>
    </contour>
  </outline>
</glyph>
<glyph name="grave" format="1">
  <advance width="518"/>
  <unicode hex="0060"/>
  <outline>
    <contour>
      <point x="42" y="1452" type="line"/>
      <point x="494" y="1163" type="line"/>
      <point x="607" y="1312" type="line"/>
      <point x="194" y="1633" type="line"/>
    </contour>
    <contour>
      <point x="303" y="1084" type="move" name="_top"/>
    </contour>
  </outline>
</glyph>
<glyph name="b" format="1">
  <advance width="1259"/>
  <unicode hex="0062"/>
  <outline>
    <contour>
      <point x="22" y="1229" type="line"/>
      <point x="138" y="1229" type="line"/>
      <point x="138" y="-1" type="line"/>
      <point x="363" y="-1" type="line"/>
      <point x="363" y="163" type="line"/>
      <point x="317" y="233" type="line"/>
      <point x="408" y="8"/>
      <point x="520" y="-19"/>
      <point x="695" y="-19" type="curve" smooth="yes"/>
      <point x="918" y="-19"/>
      <point x="1179" y="201"/>
      <point x="1179" y="548" type="curve" smooth="yes"/>
      <point x="1179" y="909"/>
      <point x="918" y="1104"/>
      <point x="734" y="1104" type="curve" smooth="yes"/>
      <point x="532" y="1104"/>
      <point x="410" y="1031"/>
      <point x="314" y="840" type="curve"/>
      <point x="375" y="908" type="line"/>
      <point x="376" y="1331" type="line" smooth="yes"/>
      <point x="376" y="1420"/>
      <point x="337" y="1455"/>
      <point x="262" y="1455" type="curve" smooth="yes"/>
      <point x="18" y="1455" type="line"/>
    </contour>
    <contour>
      <point x="856" y="877"/>
      <point x="941" y="754"/>
      <point x="941" y="546" type="curve" smooth="yes"/>
      <point x="941" y="346"/>
      <point x="850" y="208"/>
      <point x="660" y="208" type="curve" smooth="yes"/>
      <point x="519" y="208"/>
      <point x="375" y="297"/>
      <point x="375" y="448" type="curve" smooth="yes"/>
      <point x="375" y="599" type="line" smooth="yes"/>
      <point x="375" y="761"/>
      <point x="509" y="877"/>
      <point x="655" y="877" type="curve" smooth="yes"/>
    </contour>
  </outline>
</glyph>
<glyph name="c" format="1">
  <advance width="1149"/>
  <unicode hex="0063"/>
  <outline>
    <contour>
      <point x="289" y="1104"/>
      <point x="58" y="882"/>
      <point x="58" y="550" type="curve"/>
      <point x="58" y="212"/>
      <point x="280" y="-19"/>
      <point x="618" y="-19" type="curve" smooth="yes"/>
      <point x="806" y="-19"/>
      <point x="925" y="31"/>
      <point x="1117" y="200" type="curve"/>
      <point x="984" y="380" type="line"/>
      <point x="838" y="240"/>
      <point x="737" y="208"/>
      <point x="620" y="208" type="curve" smooth="yes"/>
      <point x="420" y="208"/>
      <point x="296" y="359"/>
      <point x="296" y="563" type="curve" smooth="yes"/>
      <point x="296" y="751"/>
      <point x="443" y="877"/>
      <point x="627" y="877" type="curve" smooth="yes"/>
      <point x="688" y="877"/>
      <point x="750" y="867"/>
      <point x="801" y="837" type="curve" smooth="yes"/>
      <point x="824" y="824"/>
      <point x="839" y="810"/>
      <point x="839" y="779" type="curve" smooth="yes"/>
      <point x="839" y="711" type="line"/>
      <point x="1069" y="711" type="line"/>
      <point x="1069" y="799" type="line" smooth="yes"/>
      <point x="1069" y="917"/>
      <point x="1019" y="988"/>
      <point x="914" y="1041" type="curve" smooth="yes"/>
      <point x="855" y="1071"/>
      <point x="760" y="1104"/>
      <point x="629" y="1104" type="curve" smooth="yes"/>
    </contour>
  </outline>
</glyph>
<glyph name="f" format="1">
  <advance width="816"/>
  <unicode hex="0066"/>
  <outline>
    <contour>
      <point x="495" y="903" type="line"/>
      <point x="726" y="903" type="line"/>
      <point x="726" y="1086" type="line"/>
      <point x="496" y="1086" type="line"/>
      <point x="499" y="1170"/>
      <point x="515" y="1228"/>
      <point x="607" y="1228" type="curve" smooth="yes"/>
      <point x="738" y="1228" type="line"/>
      <point x="738" y="1454" type="line"/>
      <point x="613" y="1454" type="line" smooth="yes"/>
      <point x="362" y="1454"/>
      <point x="270" y="1335"/>
      <point x="259" y="1086" type="curve"/>
      <point x="77" y="1086" type="line"/>
      <point x="77" y="903" type="line"/>
      <point x="259" y="903" type="line"/>
      <point x="259" y="-1" type="line"/>
      <point x="494" y="-1" type="line"/>
    </contour>
  </outline>
</glyph>
<glyph name="n" format="1">
  <advance width="1304"/>
  <unicode hex="006E"/>
  <outline>
    <contour>
      <point x="55" y="860" type="line"/>
      <point x="174" y="860" type="line"/>
      <point x="174" y="-1" type="line"/>
      <point x="411" y="-1" type="line"/>
      <point x="411" y="759" type="line"/>
      <point x="468" y="825"/>
      <point x="544" y="877"/>
      <point x="642" y="877" type="curve" smooth="yes"/>
      <point x="738" y="877"/>
      <point x="848" y="826"/>
      <point x="848" y="679" type="curve" smooth="yes"/>
      <point x="848" y="221" type="line"/>
      <point x="851" y="139"/>
      <point x="870" y="85"/>
      <point x="896" y="56" type="curve" smooth="yes"/>
      <point x="946" y="0"/>
      <point x="1016" y="-1"/>
      <point x="1095" y="-1" type="curve" smooth="yes"/>
      <point x="1246" y="-1" type="line"/>
      <point x="1246" y="225" type="line"/>
      <point x="1107" y="225" type="line" smooth="yes"/>
      <point x="1097" y="225"/>
      <point x="1092" y="226"/>
      <point x="1089" y="228" type="curve" smooth="yes"/>
      <point x="1086" y="230"/>
      <point x="1085" y="233"/>
      <point x="1085" y="235" type="curve"/>
      <point x="1085" y="699" type="line" smooth="yes"/>
      <point x="1085" y="977"/>
      <point x="871" y="1104"/>
      <point x="699" y="1104" type="curve" smooth="yes"/>
      <point x="566" y="1104"/>
      <point x="448" y="1062"/>
      <point x="367" y="954" type="curve"/>
      <point x="393" y="943" type="line"/>
      <point x="396" y="967" type="line"/>
      <point x="397" y="1045"/>
      <point x="354" y="1086"/>
      <point x="274" y="1086" type="curve" smooth="yes"/>
      <point x="55" y="1086" type="line"/>
    </contour>
  </outline>
</glyph>
<glyph name="q" format="1">
  <advance width="1226"/>
  <unicode hex="0071"/>
  <outline>
    <contour>
      <point x="241" y="1104"/>
      <point x="58" y="909"/>
      <point x="58" y="548" type="curve"/>
      <point x="58" y="201"/>
      <point x="251" y="-19"/>
      <point x="546" y="-19" type="curve" smooth="yes"/>
      <point x="680" y="-19"/>
      <point x="783" y="10"/>
      <point x="864" y="96" type="curve"/>
      <point x="864" y="-429" type="line"/>
      <point x="1100" y="-429" type="line"/>
      <point x="1100" y="1087" type="line"/>
      <point x="881" y="1087" type="line"/>
      <point x="881" y="955" type="line"/>
      <point x="801" y="1057"/>
      <point x="686" y="1104"/>
      <point x="581" y="1104" type="curve" smooth="yes"/>
    </contour>
    <contour>
      <point x="728" y="877"/>
      <point x="864" y="761"/>
      <point x="864" y="599" type="curve" smooth="yes"/>
      <point x="864" y="448" type="line" smooth="yes"/>
      <point x="864" y="297"/>
      <point x="719" y="208"/>
      <point x="577" y="208" type="curve" smooth="yes"/>
      <point x="387" y="208"/>
      <point x="297" y="346"/>
      <point x="297" y="546" type="curve" smooth="yes"/>
      <point x="297" y="754"/>
      <point x="381" y="877"/>
      <point x="582" y="877" type="curve" smooth="yes"/>
    </contour>
  </outline>
</glyph>
<glyph name="x" format="1">
  <advance width="1169"/>
  <unicode hex="0078"/>
  <outline>
    <contour>
      <point x="907" y="1086" type="line" smooth="yes"/>
      <point x="856" y="1086"/>
      <point x="819" y="1065"/>
      <point x="788" y="1024" type="curve" smooth="yes"/>
      <point x="576" y="747" type="line"/>
      <point x="349" y="1025" type="line" smooth="yes"/>
      <point x="315" y="1067"/>
      <point x="281" y="1085"/>
      <point x="232" y="1085" type="curve" smooth="yes"/>
      <point x="54" y="1085" type="line"/>
      <point x="54" y="859" type="line"/>
      <point x="177" y="859" type="line"/>
      <point x="430" y="547" type="line"/>
      <point x="20" y="-2" type="line"/>
      <point x="320" y="-2" type="line"/>
      <point x="577" y="342" type="line"/>
      <point x="857" y="-2" type="line"/>
      <point x="1149" y="-2" type="line"/>
      <point x="720" y="551" type="line"/>
      <point x="961" y="860" type="line"/>
      <point x="1086" y="860" type="line"/>
      <point x="1086" y="1086" type="line"/>
    </contour>
  </outline>
</glyph>
<glyph name="bar" format="1">
  <advance width="537"/>
  <unicode hex="007C"/>
  <outline>
    <contour>
      <point x="161" y="1598" type="line"/>
      <point x="161" y="-121" type="line"/>
      <point x="376" y="-121" type="line"/>
      <point x="376" y="1598" type="line"/>
    </contour>
  </outline>
</glyph>
<glyph name="exclamdown" format="1">
  <advance width="532"/>
  <unicode hex="00A1"/>
  <outline>
    <contour>
      <point x="160" y="903" type="line"/>
      <point x="132" y="-242" type="line"/>
      <point x="393" y="-242" type="line"/>
      <point x="366" y="903" type="line"/>
    </contour>
    <contour>
      <point x="186" y="1253"/>
      <point x="117" y="1186"/>
      <point x="117" y="1105" type="curve"/>
      <point x="117" y="1025"/>
      <point x="185" y="957"/>
      <point x="265" y="957" type="curve" smooth="yes"/>
      <point x="346" y="957"/>
      <point x="413" y="1026"/>
      <point x="413" y="1105" type="curve" smooth="yes"/>
      <point x="413" y="1186"/>
      <point x="346" y="1253"/>
      <point x="265" y="1253" type="curve" smooth="yes"/>
    </contour>
  </outline>
</glyph>
<glyph name="logicalnot" format="1">
  <advance width="1107"/>
  <unicode hex="00AC"/>
  <outline>
    <contour>
      <point x="133" y="800" type="line"/>
      <point x="133" y="584" type="line"/>
      <point x="767" y="584" type="line"/>
      <point x="767" y="322" type="line"/>
      <point x="974" y="322" type="line"/>
      <point x="974" y="800" type="line"/>
    </contour>
  </outline>
</glyph>
<glyph name="uni00B2" format="1">
  <advance width="782"/>
  <unicode hex="00B2"/>
  <outline>
    <contour>
      <point x="292" y="1590"/>
      <point x="216" y="1563"/>
      <point x="161" y="1514" type="curve" smooth="yes"/>
      <point x="98" y="1457"/>
      <point x="73" y="1398"/>
      <point x="73" y="1239" type="curve"/>
      <point x="300" y="1239" type="line"/>
      <point x="300" y="1330"/>
      <point x="300" y="1341"/>
      <point x="324" y="1365" type="curve" smooth="yes"/>
      <point x="336" y="1377"/>
      <point x="351" y="1384"/>
      <point x="368" y="1387" type="curve"/>
      <point x="391" y="1387" type="line" smooth="yes"/>
      <point x="418" y="1387"/>
      <point x="441" y="1382"/>
      <point x="455" y="1367" type="curve" smooth="yes"/>
      <point x="469" y="1352"/>
      <point x="476" y="1335"/>
      <point x="476" y="1315" type="curve" smooth="yes"/>
      <point x="476" y="1303"/>
      <point x="475" y="1291"/>
      <point x="472" y="1280" type="curve" smooth="yes"/>
      <point x="469" y="1270"/>
      <point x="464" y="1260"/>
      <point x="458" y="1250" type="curve" smooth="yes"/>
      <point x="448" y="1236"/>
      <point x="435" y="1221"/>
      <point x="421" y="1205" type="curve" smooth="yes"/>
      <point x="405" y="1187"/>
      <point x="385" y="1167"/>
      <point x="361" y="1143" type="curve" smooth="yes"/>
      <point x="62" y="843" type="line"/>
      <point x="62" y="679" type="line"/>
      <point x="721" y="679" type="line"/>
      <point x="721" y="879" type="line"/>
      <point x="407" y="879" type="line"/>
      <point x="523" y="997" type="line" smooth="yes"/>
      <point x="579" y="1055"/>
      <point x="622" y="1105"/>
      <point x="653" y="1148" type="curve" smooth="yes"/>
      <point x="690" y="1199"/>
      <point x="708" y="1255"/>
      <point x="708" y="1315" type="curve" smooth="yes"/>
      <point x="708" y="1406"/>
      <point x="677" y="1474"/>
      <point x="620" y="1521" type="curve" smooth="yes"/>
      <point x="567" y="1566"/>
      <point x="491" y="1590"/>
      <point x="390" y="1590" type="curve" smooth="yes"/>
    </contour>
  </outline>
</glyph>
<glyph name="acute" format="1">
  <advance width="595"/>
  <unicode hex="00B4"/>
  <outline>
    <contour>
      <point x="159" y="1117" type="line"/>
      <point x="611" y="1406" type="line"/>
      <point x="458" y="1587" type="line"/>
      <point x="46" y="1266" type="line"/>
    </contour>
    <contour>
      <point x="294" y="1084" type="move" name="_top"/>
    </contour>
  </outline>
</glyph>
<glyph name="periodcentered" format="1">
  <advance width="497"/>
  <unicode hex="00B7"/>
  <outline>
    <contour>
      <point x="165" y="736"/>
      <point x="98" y="666"/>
      <point x="98" y="582" type="curve"/>
      <point x="98" y="499"/>
      <point x="165" y="432"/>
      <point x="248" y="432" type="curve" smooth="yes"/>
      <point x="332" y="432"/>
      <point x="402" y="499"/>
      <point x="402" y="582" type="curve" smooth="yes"/>
      <point x="402" y="661"/>
      <point x="349" y="736"/>
      <point x="248" y="736" type="curve" smooth="yes"/>
    </contour>
  </outline>
</glyph>
<glyph name="guillemotright" format="1">
  <advance width="845"/>
  <unicode hex="00BB"/>
  <outline>
    <contour>
      <point x="337" y="932" type="line"/>
      <point x="573" y="618" type="line"/>
      <point x="337" y="295" type="line"/>
      <point x="595" y="295" type="line"/>
      <point x="804" y="557" type="line"/>
      <point x="804" y="679" type="line"/>
      <point x="594" y="932" type="line"/>
    </contour>
    <contour>
      <point x="5" y="931" type="line"/>
      <point x="238" y="619" type="line"/>
      <point x="5" y="296" type="line"/>
      <point x="257" y="296" type="line"/>
      <point x="466" y="557" type="line"/>
      <point x="466" y="679" type="line"/>
      <point x="257" y="931" type="line"/>
    </contour>
  </outline>
</glyph>
<glyph name="onequarter" format="1">
  <advance width="1565"/>
  <unicode hex="00BC"/>
  <outline>
    <contour>
      <point x="854" y="1601" type="line"/>
      <point x="372" y="-126" type="line"/>
      <point x="588" y="-126" type="line"/>
      <point x="1069" y="1601" type="line"/>
    </contour>
    <contour>
      <point x="280" y="1505" type="line"/>
      <point x="31" y="1431" type="line"/>
      <point x="49" y="1252" type="line"/>
      <point x="213" y="1287" type="line"/>
      <point x="213" y="676" type="line"/>
      <point x="431" y="676" type="line"/>
      <point x="431" y="1505" type="line"/>
    </contour>
    <contour>
      <point x="1149" y="828" type="line"/>
      <point x="836" y="291" type="line"/>
      <point x="836" y="158" type="line"/>
      <point x="1208" y="158" type="line"/>
      <point x="1208" y="-1" type="line"/>
      <point x="1426" y="-1" type="line"/>
      <point x="1426" y="158" type="line"/>
      <point x="1511" y="158" type="line"/>
      <point x="1511" y="332" type="line"/>
      <point x="1426" y="332" type="line"/>
      <point x="1426" y="828" type="line"/>
    </contour>
    <contour>
      <point x="1208" y="332" type="line"/>
      <point x="1100" y="332" type="line"/>
      <point x="1208" y="563" type="line"/>
    </contour>
  </outline>
</glyph>
<glyph name="questiondown" format="1">
  <advance width="937"/>
  <unicode hex="00BF"/>
  <outline>
    <contour>
      <point x="395" y="812" type="line"/>
      <point x="392" y="657"/>
      <point x="364" y="582"/>
      <point x="287" y="493" type="curve" smooth="yes"/>
      <point x="184" y="379" type="line" smooth="yes"/>
      <point x="95" y="279"/>
      <point x="54" y="164"/>
      <point x="54" y="47" type="curve"/>
      <point x="54" y="-203"/>
      <point x="208" y="-360"/>
      <point x="469" y="-360" type="curve" smooth="yes"/>
      <point x="698" y="-360"/>
      <point x="891" y="-243"/>
      <point x="891" y="100" type="curve"/>
      <point x="666" y="100" type="line"/>
      <point x="666" y="-72"/>
      <point x="603" y="-153"/>
      <point x="476" y="-153" type="curve" smooth="yes"/>
      <point x="358" y="-153"/>
      <point x="282" y="-71"/>
      <point x="282" y="42" type="curve" smooth="yes"/>
      <point x="282" y="115"/>
      <point x="314" y="200"/>
      <point x="386" y="286" type="curve" smooth="yes"/>
      <point x="477" y="397" type="line" smooth="yes"/>
      <point x="563" y="501"/>
      <point x="597" y="612"/>
      <point x="600" y="812" type="curve"/>
    </contour>
    <contour>
      <point x="415" y="1159"/>
      <point x="348" y="1093"/>
      <point x="348" y="1011" type="curve" smooth="yes"/>
      <point x="348" y="933"/>
      <point x="415" y="863"/>
      <point x="494" y="863" type="curve" smooth="yes"/>
      <point x="576" y="863"/>
      <point x="644" y="932"/>
      <point x="644" y="1011" type="curve" smooth="yes"/>
      <point x="644" y="1091"/>
      <point x="575" y="1159"/>
      <point x="494" y="1159" type="curve" smooth="yes"/>
    </contour>
  </outline>
</glyph>
<glyph name="Oslash" format="1">
  <advance width="1697"/>
  <unicode hex="00D8"/>
  <outline>
    <contour>
      <point x="1183" y="1396" type="line"/>
      <point x="1084" y="1440"/>
      <point x="971" y="1464"/>
      <point x="845" y="1464" type="curve" smooth="yes"/>
      <point x="417" y="1464"/>
      <point x="80" y="1172"/>
      <point x="80" y="697" type="curve" smooth="yes"/>
      <point x="80" y="473"/>
      <point x="160" y="273"/>
      <point x="306" y="135" type="curve"/>
      <point x="227" y="22" type="line"/>
      <point x="414" y="-106" type="line"/>
      <point x="493" y="7" type="line"/>
      <point x="595" y="-40"/>
      <point x="712" y="-66"/>
      <point x="845" y="-66" type="curve" smooth="yes"/>
      <point x="1273" y="-66"/>
      <point x="1610" y="224"/>
      <point x="1610" y="697" type="curve" smooth="yes"/>
      <point x="1610" y="928"/>
      <point x="1525" y="1132"/>
      <point x="1373" y="1272" type="curve"/>
      <point x="1460" y="1396" type="line"/>
      <point x="1272" y="1525" type="line"/>
    </contour>
    <contour>
      <point x="918" y="1244"/>
      <point x="987" y="1232"/>
      <point x="1050" y="1208" type="curve"/>
      <point x="439" y="328" type="line"/>
      <point x="360" y="419"/>
      <point x="313" y="545"/>
      <point x="313" y="698" type="curve" smooth="yes"/>
      <point x="313" y="1009"/>
      <point x="512" y="1244"/>
      <point x="844" y="1244" type="curve" smooth="yes"/>
    </contour>
    <contour>
      <point x="1325" y="987"/>
      <point x="1376" y="857"/>
      <point x="1376" y="698" type="curve" smooth="yes"/>
      <point x="1376" y="393"/>
      <point x="1176" y="155"/>
      <point x="844" y="155" type="curve" smooth="yes"/>
      <point x="765" y="155"/>
      <point x="691" y="169"/>
      <point x="624" y="195" type="curve"/>
      <point x="1240" y="1081" type="line"/>
    </contour>
  </outline>
</glyph>
<glyph name="Thorn" format="1">
  <advance width="1184"/>
  <unicode hex="00DE"/>
  <outline>
    <contour>
      <point x="47" y="1496" type="line"/>
      <point x="47" y="1265" type="line"/>
      <point x="173" y="1265" type="line"/>
      <point x="173" y="1" type="line"/>
      <point x="420" y="1" type="line"/>
      <point x="420" y="320" type="line"/>
      <point x="597" y="320" type="line" smooth="yes"/>
      <point x="893" y="320"/>
      <point x="1130" y="474"/>
      <point x="1130" y="778" type="curve" smooth="yes"/>
      <point x="1130" y="1069"/>
      <point x="912" y="1233"/>
      <point x="597" y="1233" type="curve" smooth="yes"/>
      <point x="421" y="1233" type="line"/>
      <point x="421" y="1496" type="line"/>
    </contour>
    <contour>
      <point x="753" y="1002"/>
      <point x="880" y="945"/>
      <point x="880" y="779" type="curve" smooth="yes"/>
      <point x="880" y="617"/>
      <point x="762" y="552"/>
      <point x="597" y="552" type="curve" smooth="yes"/>
      <point x="420" y="552" type="line"/>
      <point x="421" y="1002" type="line"/>
      <point x="597" y="1002" type="line" smooth="yes"/>
    </contour>
  </outline>
</glyph>
<glyph name="thorn" format="1">
  <advance width="1280"/>
  <unicode hex="00FE"/>
  <outline>
    <contour>
      <point x="72" y="1494" type="line"/>
      <point x="72" y="1270" type="line"/>
      <point x="193" y="1270" type="line"/>
      <point x="193" y="-443" type="line"/>
      <point x="430" y="-443" type="line"/>
      <point x="430" y="54" type="line"/>
      <point x="513" y="-2"/>
      <point x="613" y="-20"/>
      <point x="731" y="-20" type="curve" smooth="yes"/>
      <point x="1075" y="-20"/>
      <point x="1262" y="206"/>
      <point x="1262" y="562" type="curve" smooth="yes"/>
      <point x="1262" y="933"/>
      <point x="1075" y="1132"/>
      <point x="725" y="1132" type="curve" smooth="yes"/>
      <point x="622" y="1132"/>
      <point x="519" y="1106"/>
      <point x="430" y="1050" type="curve"/>
      <point x="430" y="1074"/>
      <point x="430" y="1097"/>
      <point x="430" y="1121" type="curve" smooth="yes"/>
      <point x="430" y="1368" type="line" smooth="yes"/>
      <point x="430" y="1474"/>
      <point x="397" y="1494"/>
      <point x="311" y="1494" type="curve" smooth="yes"/>
    </contour>
    <contour>
      <point x="934" y="905"/>
      <point x="1023" y="777"/>
      <point x="1023" y="560" type="curve" smooth="yes"/>
      <point x="1023" y="351"/>
      <point x="928" y="207"/>
      <point x="730" y="207" type="curve" smooth="yes"/>
      <point x="581" y="207"/>
      <point x="430" y="301"/>
      <point x="430" y="459" type="curve" smooth="yes"/>
      <point x="430" y="615" type="line" smooth="yes"/>
      <point x="430" y="784"/>
      <point x="571" y="905"/>
      <point x="724" y="905" type="curve" smooth="yes"/>
    </contour>
  </outline>
</glyph>
<glyph name="Dcroat" format="1">
  <advance width="1309"/>
  <unicode hex="0110"/>
  <outline>
    <contour>
      <point x="14" y="1483" type="line"/>
      <point x="14" y="1267" type="line"/>
      <point x="140" y="1267" type="line"/>
      <point x="140" y="860" type="line"/>
      <point x="29" y="860" type="line"/>
      <point x="29" y="645" type="line"/>
      <point x="140" y="645" type="line"/>
      <point x="140" y="3" type="line"/>
      <point x="557" y="3" type="line" smooth="yes"/>
      <point x="1020" y="3"/>
      <point x="1293" y="316"/>
      <point x="1293" y="744" type="curve" smooth="yes"/>
      <point x="1293" y="1168"/>
      <point x="1018" y="1483"/>
      <point x="557" y="1483" type="curve" smooth="yes"/>
    </contour>
    <contour>
      <point x="872" y="1268"/>
      <point x="1058" y="1035"/>
      <point x="1058" y="744" type="curve" smooth="yes"/>
      <point x="1058" y="456"/>
      <point x="876" y="219"/>
      <point x="565" y="219" type="curve" smooth="yes"/>
      <point x="369" y="219" type="line"/>
      <point x="369" y="645" type="line"/>
      <point x="711" y="645" type="line"/>
      <point x="711" y="860" type="line"/>
      <point x="369" y="860" type="line"/>
      <point x="369" y="1268" type="line"/>
      <point x="565" y="1268" type="line" smooth="yes"/>
    </contour>
  </outline>
</glyph>
<glyph name="florin" format="1">
  <advance width="906"/>
  <unicode hex="0192"/>
  <outline>
    <contour>
      <point x="515" y="1458"/>
      <point x="406" y="1411"/>
      <point x="338" y="1324" type="curve" smooth="yes"/>
      <point x="272" y="1241"/>
      <point x="237" y="1120"/>
      <point x="237" y="957" type="curve" smooth="yes"/>
      <point x="237" y="773" type="line"/>
      <point x="25" y="773" type="line"/>
      <point x="25" y="558" type="line"/>
      <point x="237" y="558" type="line"/>
      <point x="237" y="-492" type="line"/>
      <point x="483" y="-473" type="line"/>
      <point x="483" y="558" type="line"/>
      <point x="823" y="558" type="line"/>
      <point x="823" y="772" type="line"/>
      <point x="483" y="772" type="line"/>
      <point x="483" y="956" type="line" smooth="yes"/>
      <point x="483" y="1055"/>
      <point x="498" y="1132"/>
      <point x="532" y="1183" type="curve" smooth="yes"/>
      <point x="560" y="1228"/>
      <point x="611" y="1247"/>
      <point x="678" y="1247" type="curve" smooth="yes"/>
      <point x="749" y="1247"/>
      <point x="770" y="1245"/>
      <point x="872" y="1176" type="curve"/>
      <point x="946" y="1382" type="line"/>
      <point x="841" y="1442"/>
      <point x="778" y="1458"/>
      <point x="669" y="1458" type="curve" smooth="yes"/>
    </contour>
  </outline>
</glyph>
<glyph name="uni021A" format="1">
  <advance width="1058"/>
  <unicode hex="021A"/>
  <outline>
    <contour>
      <point x="94" y="1431" type="line" smooth="yes"/>
      <point x="22" y="1431"/>
      <point x="-12" y="1397"/>
      <point x="-12" y="1326" type="curve" smooth="yes"/>
      <point x="-11" y="1096" type="line"/>
      <point x="209" y="1096" type="line"/>
      <point x="209" y="1217" type="line"/>
      <point x="405" y="1217" type="line"/>
      <point x="405" y="-47" type="line"/>
      <point x="634" y="-47" type="line"/>
      <point x="634" y="1217" type="line"/>
      <point x="831" y="1217" type="line"/>
      <point x="831" y="1096" type="line"/>
      <point x="1051" y="1096" type="line"/>
      <point x="1051" y="1326" type="line" smooth="yes"/>
      <point x="1051" y="1397"/>
      <point x="1017" y="1431"/>
      <point x="945" y="1431" type="curve" smooth="yes"/>
    </contour>
    <contour>
      <point x="442" y="-83"/>
      <point x="368" y="-124"/>
      <point x="368" y="-233" type="curve" smooth="yes"/>
      <point x="368" y="-309"/>
      <point x="408" y="-341"/>
      <point x="408" y="-388" type="curve" smooth="yes"/>
      <point x="408" y="-427"/>
      <point x="382" y="-449"/>
      <point x="299" y="-524" type="curve"/>
      <point x="409" y="-640" type="line"/>
      <point x="504" y="-568"/>
      <point x="544" y="-534"/>
      <point x="595" y="-458" type="curve" smooth="yes"/>
      <point x="652" y="-375"/>
      <point x="668" y="-310"/>
      <point x="668" y="-254" type="curve" smooth="yes"/>
      <point x="668" y="-108"/>
      <point x="575" y="-83"/>
      <point x="519" y="-83" type="curve" smooth="yes"/>
    </contour>
  </outline>
</glyph>
<glyph name="caron" format="1">
  <advance width="704"/>
  <unicode hex="02C7"/>
  <outline>
    <contour>
      <point x="318" y="1174" type="line"/>
      <point x="441" y="1174" type="line"/>
      <point x="717" y="1495" type="line"/>
      <point x="594" y="1620" type="line"/>
      <point x="380" y="1433" type="line"/>
      <point x="166" y="1620" type="line"/>
      <point x="44" y="1495" type="line"/>
    </contour>
  </outline>
</glyph>
<glyph name="endash" format="1">
  <advance width="1087"/>
  <unicode hex="2013"/>
  <outline>
    <contour>
      <point x="78" y="503" type="line"/>
      <point x="1007" y="503" type="line"/>
      <point x="1007" y="702" type="line"/>
      <point x="78" y="702" type="line"/>
    </contour>
  </outline>
</glyph>
<glyph name="quoteright" format="1">
  <advance width="442"/>
  <unicode hex="2019"/>
  <outline>
    <contour>
      <point x="175" y="1495"/>
      <point x="101" y="1454"/>
      <point x="101" y="1345" type="curve" smooth="yes"/>
      <point x="101" y="1269"/>
      <point x="142" y="1237"/>
      <point x="142" y="1190" type="curve" smooth="yes"/>
      <point x="142" y="1151"/>
      <point x="116" y="1129"/>
      <point x="32" y="1054" type="curve"/>
      <point x="143" y="938" type="line"/>
      <point x="237" y="1010"/>
      <point x="277" y="1044"/>
      <point x="329" y="1120" type="curve" smooth="yes"/>
      <point x="385" y="1203"/>
      <point x="401" y="1268"/>
      <point x="401" y="1324" type="curve" smooth="yes"/>
      <point x="401" y="1470"/>
      <point x="308" y="1495"/>
      <point x="252" y="1495" type="curve" smooth="yes"/>
    </contour>
  </outline>
</glyph>
<glyph name="quotedblbase" format="1">
  <advance width="806"/>
  <unicode hex="201E"/>
  <outline>
    <contour>
      <point x="166" y="241"/>
      <point x="92" y="200"/>
      <point x="92" y="91" type="curve" smooth="yes"/>
      <point x="92" y="15"/>
      <point x="132" y="-17"/>
      <point x="132" y="-64" type="curve" smooth="yes"/>
      <point x="132" y="-103"/>
      <point x="106" y="-125"/>
      <point x="23" y="-200" type="curve"/>
      <point x="133" y="-316" type="line"/>
      <point x="228" y="-244"/>
      <point x="268" y="-210"/>
      <point x="319" y="-134" type="curve" smooth="yes"/>
      <point x="376" y="-51"/>
      <point x="392" y="14"/>
      <point x="392" y="70" type="curve" smooth="yes"/>
      <point x="392" y="216"/>
      <point x="299" y="241"/>
      <point x="243" y="241" type="curve" smooth="yes"/>
    </contour>
    <contour>
      <point x="490" y="241"/>
      <point x="416" y="200"/>
      <point x="416" y="91" type="curve" smooth="yes"/>
      <point x="416" y="15"/>
      <point x="457" y="-17"/>
      <point x="457" y="-64" type="curve" smooth="yes"/>
      <point x="457" y="-103"/>
      <point x="431" y="-125"/>
      <point x="347" y="-200" type="curve"/>
      <point x="457" y="-316" type="line"/>
      <point x="552" y="-244"/>
      <point x="592" y="-210"/>
      <point x="644" y="-134" type="curve" smooth="yes"/>
      <point x="700" y="-51"/>
      <point x="716" y="14"/>
      <point x="716" y="70" type="curve" smooth="yes"/>
      <point x="716" y="216"/>
      <point x="623" y="241"/>
      <point x="567" y="241" type="curve" smooth="yes"/>
    </contour>
  </outline>
</glyph>
<glyph name="dagger" format="1">
  <advance width="1008"/>
  <unicode hex="2020"/>
  <outline>
    <contour>
      <point x="390" y="-47" type="line"/>
      <point x="628" y="-47" type="line"/>
      <point x="628" y="910" type="line"/>
      <point x="939" y="910" type="line"/>
      <point x="939" y="1130" type="line"/>
      <point x="628" y="1132" type="line"/>
      <point x="628" y="1432" type="line"/>
      <point x="390" y="1432" type="line"/>
      <point x="390" y="1132" type="line"/>
      <point x="79" y="1132" type="line"/>
      <point x="79" y="910" type="line"/>
      <point x="390" y="910" type="line"/>
    </contour>
  </outline>
</glyph>
<glyph name="glyph00112" format="1">
  <advance width="671"/>
  <outline>
    <contour>
      <point x="47" y="1210" type="line"/>
      <point x="624" y="1210" type="line"/>
      <point x="624" y="1432" type="line"/>
      <point x="47" y="1432" type="line"/>
    </contour>
  </outline>
</glyph>
